<mxfile host="app.diagrams.net" modified="2020-12-05T12:09:45.834Z" agent="5.0 (Windows)" etag="QynYqPZk4YkHQYkfy7-i" version="13.10.9" type="github">
  <diagram id="WFy3jEqJVR7ei0UwMqTv" name="Page-1">
    <mxGraphModel dx="1038" dy="547" grid="1" gridSize="10" guides="1" tooltips="1" connect="1" arrows="1" fold="1" page="1" pageScale="1" pageWidth="1169" pageHeight="827" math="0" shadow="0">
      <root>
        <mxCell id="0" />
        <mxCell id="1" parent="0" />
        <mxCell id="Fs6aQgj2k6ZO6EgoAaG_-1" value="Container" style="swimlane;startSize=23;" vertex="1" parent="1">
          <mxGeometry x="10" y="10" width="1150" height="810" as="geometry" />
        </mxCell>
      </root>
    </mxGraphModel>
  </diagram>
</mxfile>
